<svg xmlns:dc="http://purl.org/dc/elements/1.1/" xmlns:cc="http://creativecommons.org/ns#" xmlns:rdf="http://www.w3.org/1999/02/22-rdf-syntax-ns#" xmlns:svg="http://www.w3.org/2000/svg" xmlns="http://www.w3.org/2000/svg" xml:space="preserve" id="svg2" version="1.1" viewBox="-331.91 -572.81 1930.38 2019.22"><metadata id="metadata8"><rdf:RDF><cc:Work rdf:about=""><dc:format>image/svg+xml</dc:format><dc:type rdf:resource="http://purl.org/dc/dcmitype/StillImage"/></cc:Work></rdf:RDF></metadata><defs id="defs6"><clipPath id="clipPath18" clipPathUnits="userSpaceOnUse"><path id="path16" d="M 0,512 H 512 V 0 H 0 Z"/></clipPath><clipPath id="clipPath42" clipPathUnits="userSpaceOnUse"><path id="path40" d="M 43.385,283.557 V 166.346 c 1.763,-7.884 8.802,-13.778 17.218,-13.778 v 0 l 253.033,0.012 -0.171,130.977 z"/></clipPath><clipPath id="clipPath50" clipPathUnits="userSpaceOnUse"><path id="path48" d="M -94.7665,246.835 H 384.163 V -194.65 H -94.7665 Z"/></clipPath><clipPath id="clipPath54" clipPathUnits="userSpaceOnUse"><path id="path52" d="M -94.7665,246.835 H 384.163 V -194.65 H -94.7665 Z"/></clipPath><clipPath id="clipPath90" clipPathUnits="userSpaceOnUse"><path id="path88" d="m 60.603,359.42 c -9.744,0 -17.642,-7.899 -17.642,-17.643 v 0 -74.023 h 167.212 v 91.673 z"/></clipPath><clipPath id="clipPath98" clipPathUnits="userSpaceOnUse"><path id="path96" d="M -248.933,565.554 H 208.681 V 253.853 h -457.614 z"/></clipPath><clipPath id="clipPath102" clipPathUnits="userSpaceOnUse"><path id="path100" d="M -248.933,565.554 H 208.681 V 253.853 h -457.614 z"/></clipPath><clipPath id="clipPath134" clipPathUnits="userSpaceOnUse"><path id="path132" d="M 0,512 H 512 V 0 H 0 Z"/></clipPath><clipPath id="clipPath154" clipPathUnits="userSpaceOnUse"><path id="path152" d="M 585.98,512 H 816.92 V 274.453 H 585.98 Z"/></clipPath><clipPath id="clipPath162" clipPathUnits="userSpaceOnUse"><path id="path160" d="M 149.578,723.102 H 833.745 V 257.066 H 149.578 Z"/></clipPath><clipPath id="clipPath166" clipPathUnits="userSpaceOnUse"><path id="path164" d="M 149.578,723.102 H 833.745 V 257.066 H 149.578 Z"/></clipPath><clipPath id="clipPath210" clipPathUnits="userSpaceOnUse"><path id="path208" d="m 585.98,237.002 h 512 V 0 h -512 z"/></clipPath><clipPath id="clipPath218" clipPathUnits="userSpaceOnUse"><path id="path216" d="M 337.508,221.405 H 1198.86 V -572.81 H 337.508 Z"/></clipPath><clipPath id="clipPath222" clipPathUnits="userSpaceOnUse"><path id="path220" d="M 337.508,221.405 H 1198.86 V -572.81 H 337.508 Z"/></clipPath></defs><g transform="matrix(1.3333333,0,0,-1.3333333,0,682.66667)" id="g10"><g id="g12"><g clip-path="url(#clipPath18)" id="g14"><g transform="translate(331.8672,196.5029)" id="g20"><path id="path22" style="fill:#11418b;fill-opacity:1;fill-rule:nonzero;stroke:none" d="m 0,0 v 20.231 c 0,13.248 4.442,24.832 13.327,34.75 3.809,4.284 8.251,7.814 13.329,10.591 -8.804,4.522 -15.631,12.02 -20.469,22.493 -2.46,5.394 -3.689,12.216 -3.689,20.469 v 11.781 c 0,14.043 4.167,25.665 12.497,34.87 2.697,3.046 5.685,5.591 8.9,7.744 l -295.159,-0.012 c -9.744,0 -17.643,-7.899 -17.643,-17.643 V -26.291 c 0,-9.744 7.899,-17.644 17.643,-17.644 l 295.428,0.012 c -3.204,2.067 -6.255,4.498 -9.11,7.387 C 5.016,-26.381 0,-14.204 0,0"/></g><g transform="translate(392.4414,335.98)" id="g24"><path id="path26" style="fill:#5db024;fill-opacity:1;fill-rule:nonzero;stroke:none" d="m 0,0 c -2.143,0.952 -4.643,1.427 -7.499,1.427 -5.633,0 -10.233,-1.588 -13.804,-4.76 -2.935,-2.541 -4.999,-5.792 -6.187,-9.76 -1.191,-3.967 -1.668,-8.966 -1.429,-14.994 0.315,-9.441 1.824,-16.226 4.522,-20.351 3.411,-5.553 9.045,-8.33 16.898,-8.33 7.855,0 13.568,2.934 17.138,8.808 3.015,4.997 4.442,11.62 4.285,19.873 C 13.763,-13.172 9.123,-3.808 0,0"/></g><g transform="translate(396.6064,238.3936)" id="g28"><path id="path30" style="fill:#5db024;fill-opacity:1;fill-rule:nonzero;stroke:none" d="m 0,0 c -2.777,2.062 -6.665,3.093 -11.664,3.093 -8.648,0 -14.517,-3.688 -17.612,-11.066 -1.904,-4.524 -2.856,-10.554 -2.856,-18.089 v -10.83 c 0,-7.141 2.22,-12.895 6.664,-17.257 3.65,-3.73 8.251,-5.713 13.804,-5.95 8.887,0.475 15.074,4.879 18.566,13.209 1.269,2.777 1.905,6.111 1.905,9.998 v 10.83 C 8.807,-13.131 5.871,-4.444 0,0"/></g><g transform="translate(451.3965,359.4316)" id="g32"><path id="path34" style="fill:#5db024;fill-opacity:1;fill-rule:nonzero;stroke:none" d="m 0,0 h -37.293 c 3.229,-2.153 6.225,-4.698 8.922,-7.744 8.33,-9.282 12.498,-20.906 12.498,-34.869 v -11.782 c 0,-13.565 -4.047,-24.795 -12.141,-33.679 -3.57,-3.888 -7.537,-6.983 -11.9,-9.282 9.678,-5.397 17.176,-13.648 22.493,-24.754 2.775,-5.633 4.165,-12.495 4.165,-20.587 v -20.232 c 0,-14.44 -5.078,-26.678 -15.233,-36.715 -2.844,-2.811 -5.871,-5.184 -9.045,-7.208 H 0 c 9.744,0 17.644,7.899 17.644,17.643 V -17.643 C 17.644,-7.899 9.744,0 0,0"/></g></g></g><g id="g36"><g clip-path="url(#clipPath42)" id="g38"><g id="g44"><g id="g46"/><g id="g82"><g style="opacity:0.39999402" id="g80" clip-path="url(#clipPath50)"><g id="g78"><g id="g56"/><g id="g76"><g style="opacity:0.63999897" id="g74" clip-path="url(#clipPath54)"><g id="g60" transform="translate(269.3828,-102.9287)"><path id="path58" style="fill:#5db024;fill-opacity:1;fill-rule:nonzero;stroke:none" d="m 0,0 c -1.787,44.32 -10.229,96.231 -36.95,153.208 -32.407,68.882 -102.882,134.118 -171.453,158.79 -35.51,12.738 -71.975,16.648 -99.374,14.273 -33.115,-2.886 -56.372,-16.621 -56.372,-16.621 22.928,14.131 45.205,17.928 63.636,20.138 16.834,2.015 32.843,2.052 47.754,0.98 28.259,-2.04 53.996,-8.213 76.684,-16.416 44.085,-15.958 79.369,-40.687 106.312,-67.369 C -14.031,191.729 10.917,125.564 22.823,72.246 32.993,26.517 34.785,-13.026 33.442,-45.237 24.007,-28.837 12.392,-13.816 0,0"/></g><g id="g64" transform="translate(293.4482,-133.2969)"><path id="path62" style="fill:#11418b;fill-opacity:1;fill-rule:nonzero;stroke:none" d="m 0,0 c 2.155,56.04 -4.073,124.394 -42.58,198.109 -35.941,68.582 -112.408,130.203 -183.712,151.122 -37.68,11.018 -75.556,13.085 -103.957,9.506 -34.241,-4.332 -57.961,-18.718 -57.961,-18.718 22.875,14.337 45.046,18.803 63.582,21.651 16.945,2.599 33.119,3.278 48.263,2.846 69.958,-2.107 137.052,-28.259 189.982,-74.051 C -27.043,238.88 2.309,173.852 16.334,120.501 35.003,49.2 31.765,-10.017 24.811,-51.208 19.837,-32.092 10.331,-15.074 0,0"/></g><g id="g68" transform="translate(320.3652,-194.6504)"><path id="path66" style="fill:#5db024;fill-opacity:1;fill-rule:nonzero;stroke:none" d="m 0,0 c -1.653,10.868 -5.072,20.826 -9.086,29.915 8.82,68.74 8.107,157.211 -45.948,248.176 -39.882,66.886 -121.55,122.964 -194.577,139.603 -39.335,8.926 -78.018,9.039 -106.962,4.247 -16.286,-2.702 -30.061,-6.958 -40.11,-11.129 -11.741,-4.875 -18.437,-9.441 -18.437,-9.441 22.9,14.706 45.009,20.095 63.713,23.823 17.132,3.412 33.533,4.969 48.972,5.41 27.067,0.759 54.123,-1.858 80.542,-7.792 46.654,-10.466 85.974,-30.153 116.918,-53.102 C -42.24,323.128 -8.637,260.207 7.255,207.64 28.466,137.193 25.902,75.788 18.136,31.857 12.125,21.281 6.08,10.662 0,0"/></g><g id="g72" transform="translate(351.3447,-140.1924)"><path id="path70" style="fill:#5db024;fill-opacity:1;fill-rule:nonzero;stroke:none" d="m 0,0 c 7.229,42.71 8.376,89.616 -0.808,137.504 -8.546,44.464 -26.318,90.619 -59.692,132.662 -48.087,60.398 -138.715,101.813 -214.57,108.857 -42.244,3.888 -82.179,-0.278 -111.954,-7.72 -35.485,-8.886 -59.06,-24.391 -59.06,-24.391 22.736,15.197 44.55,22.072 63.353,27.271 17.294,4.777 33.928,7.841 49.706,9.828 27.638,3.48 55.572,3.951 83.312,1.404 48.607,-4.476 90.92,-17.888 125.358,-35.571 C -56.428,314.916 -14.324,260.349 6.496,212.88 32.539,153.299 35.234,97.33 31.428,55.557 21.021,37.122 10.545,18.604 0,0"/></g></g></g></g></g></g></g></g></g><g id="g84"><g clip-path="url(#clipPath90)" id="g86"><g id="g92"><g id="g94"/><g id="g126"><g style="opacity:0.39999402" id="g124" clip-path="url(#clipPath98)"><g id="g122"><g id="g104"/><g id="g120"><g style="opacity:0.63999897" id="g118" clip-path="url(#clipPath102)"><g id="g108" transform="translate(-248.9331,372.7871)"><path id="path106" style="fill:#5db024;fill-opacity:1;fill-rule:nonzero;stroke:none" d="m 0,0 c 9.113,-2.332 18.101,-2.969 26.603,-2.847 51.196,-29.935 121.123,-58.958 210.852,-46.799 66.022,9.049 137.505,54.625 175.033,106.584 20.185,27.999 33.21,58.432 39.115,82.833 3.316,13.733 4.572,26.006 4.647,35.316 0.086,10.879 -1.272,17.68 -1.272,17.68 3.926,-22.955 0.778,-42.173 -2.541,-58.153 -3.042,-14.635 -7.3,-28.075 -12.116,-40.384 C 431.869,72.656 420.76,52.219 407.25,33.393 383.405,0.144 354.749,-24.245 326.324,-40.946 268.653,-74.784 207.853,-80.212 161.131,-75.151 98.547,-68.3 51.036,-45.747 19.029,-24.938 12.708,-16.667 6.365,-8.354 0,0"/></g><g id="g112" transform="translate(-241.3257,362.7964)"><path id="path110" style="fill:#11418b;fill-opacity:1;fill-rule:nonzero;stroke:none" d="m 0,0 c 30.416,-21.514 67.049,-40.769 109.538,-52.72 39.291,-11.036 84.269,-15.93 133.342,-5.994 65.218,13.299 132.898,65.242 167.182,120.164 18.786,30.154 30.354,61.945 35.363,87.229 2.807,14.196 3.692,26.757 3.541,36.242 -0.178,11.014 -1.599,17.83 -1.599,17.83 4.217,-23.045 1.857,-42.484 -0.774,-58.862 -2.307,-14.161 -5.707,-28.122 -10.168,-41.759 C 429.141,79.679 419.271,58.15 407.014,37.979 385.48,2.563 358.907,-24.475 331.946,-43.708 278.051,-82.11 218.511,-92.404 172.449,-89.783 115.359,-86.466 69.619,-67.587 37.045,-48.425 24.765,-32.412 12.417,-16.271 0,0"/></g><g id="g116" transform="translate(-216.3965,330.1733)"><path id="path114" style="fill:#5db024;fill-opacity:1;fill-rule:nonzero;stroke:none" d="m 0,0 c 31.225,-19.977 67.79,-36.565 108.581,-45.346 37.883,-8.136 80.182,-9.572 124.46,2.657 63.656,17.68 126.585,75.218 157.5,132.613 17.189,31.975 27.262,64.826 31.356,90.768 4.868,30.922 0.538,54.678 0.538,54.678 4.368,-22.991 2.489,-42.474 0.295,-59.022 -1.932,-14.343 -4.9,-28.527 -8.881,-42.441 C 407.348,110.973 398.378,88.812 387.096,67.813 367.316,31.022 342.602,2.177 317.156,-19.036 266.928,-60.862 209.866,-75.779 165.513,-76.305 109.871,-76.895 64.884,-60.301 33.252,-43.333 22.211,-28.972 11.127,-14.527 0,0"/></g></g></g></g></g></g></g></g></g><g id="g128"><g clip-path="url(#clipPath134)" id="g130"><g transform="translate(116.5405,292.7271)" id="g136"><path id="path138" style="fill:#ffffff;fill-opacity:1;fill-rule:nonzero;stroke:none" d="m 0,0 c 0,3.211 -1.107,5.925 -3.324,8.14 -2.217,2.214 -4.931,3.321 -8.147,3.321 -3.166,0 -5.881,-1.107 -8.145,-3.321 C -21.881,5.925 -23.014,3.211 -23.014,0 v -72.932 c 0,-3.162 1.133,-5.863 3.398,-8.102 2.264,-2.24 4.979,-3.359 8.145,-3.359 3.216,0 5.93,1.119 8.147,3.359 2.217,2.239 3.324,4.94 3.324,8.102 z m -10.959,31.553 c 8.864,0 16.402,-3.118 22.612,-9.352 6.211,-6.236 9.316,-13.76 9.316,-22.575 v -72.695 c 0,-8.865 -3.118,-16.402 -9.352,-22.612 -6.235,-6.209 -13.761,-9.315 -22.576,-9.315 -8.816,0 -16.304,3.118 -22.466,9.353 -6.162,6.233 -9.241,13.758 -9.241,22.574 v 72.695 c 0,8.864 3.116,16.402 9.35,22.611 6.234,6.211 13.688,9.316 22.357,9.316"/></g><g transform="translate(176.3228,324.2798)" id="g140"><path id="path142" style="fill:#ffffff;fill-opacity:1;fill-rule:nonzero;stroke:none" d="M 0,0 27.249,-91.707 V 0 H 47.836 V -136.548 H 25.786 L -2.546,-49.11 v -87.438 h -20.585 l 0,136.548 z"/></g><g transform="translate(242.3501,187.7314)" id="g144"><path id="path146" style="fill:#ffffff;fill-opacity:1;fill-rule:nonzero;stroke:none" d="M 0,0 V 136.548 H 58.617 V 115.961 H 20.585 V 78.531 H 48.36 V 57.943 H 20.585 V 20.588 H 58.617 V 0 Z"/></g><g id="g148"><g clip-path="url(#clipPath154)" id="g150"><g id="g156"><g id="g158"/><g id="g202"><g style="opacity:0.30000299" id="g200" clip-path="url(#clipPath162)"><g id="g198"><g id="g168"/><g id="g196"><g style="opacity:0.63999897" id="g194" clip-path="url(#clipPath166)"><g id="g172" transform="translate(334.7998,470.0327)"><path id="path170" style="fill:#11418b;fill-opacity:1;fill-rule:nonzero;stroke:none" d="m 0,0 c 40.339,-12.076 87.747,-21.128 143.665,-21.57 94.54,-0.647 206.147,40.301 271.995,102.755 33.303,31.648 57.418,69.579 69.137,100.907 14.166,37.933 10.218,70.978 10.218,70.978 4.467,-31.639 -2.245,-57.664 -8.964,-78.614 -6.13,-19.101 -14.112,-36.324 -22.789,-51.781 C 446.79,93.35 426.887,68.842 406.304,48.647 366.051,9.188 320.609,-16.273 277.088,-32.121 186.731,-64.966 99.979,-60.223 32.305,-48.211 0.552,-42.563 -30.726,-34.505 -61.255,-24.106 -40.322,-17.473 -19.862,-9.24 0,0"/></g><g id="g176" transform="translate(283.085,449.0645)"><path id="path174" style="fill:#5db024;fill-opacity:1;fill-rule:nonzero;stroke:none" d="m 0,0 c 53.088,-20.054 118.443,-36.068 198.901,-33.083 97.322,3.726 209.383,54.104 272.721,122.523 32.756,35.451 55.591,76.44 66.492,109.894 13.158,40.441 8.612,74.697 8.612,74.697 5.177,-34.067 -1.489,-62.199 -8.101,-85.01 C 532.581,168.188 524.62,149.317 515.903,132.293 500.542,102.407 481.136,74.78 458.231,50.193 417.398,6.253 370.635,-22.936 325.742,-41.326 232.807,-79.333 142.415,-75.635 73.67,-62.998 14.732,-52.112 -32.732,-34.452 -69.995,-16.766 -45.963,-13.854 -22.466,-7.686 0,0"/></g><g id="g180" transform="translate(235.29,435.9062)"><path id="path178" style="fill:#11418b;fill-opacity:1;fill-rule:nonzero;stroke:none" d="m 0,0 c 64.918,-30.556 148.53,-57.396 254.594,-48.903 98.736,8.038 209.533,67.282 269.82,140.795 31.815,38.867 53.187,82.438 63.17,117.673 12.018,42.492 6.934,77.619 6.934,77.619 5.448,-34.107 -0.377,-62.451 -6.29,-85.704 -5.413,-21.254 -12.699,-40.642 -20.779,-58.26 C 529.992,61.887 465.648,-4.053 385.257,-43.491 294.841,-87.583 203.585,-89.638 133.742,-79.482 40.439,-65.82 -27.678,-32.4 -72.711,-3.616 -47.712,-7.316 -22.918,-4.631 0,0"/></g><g id="g184" transform="translate(149.5786,434.8809)"><path id="path182" style="fill:#5db024;fill-opacity:1;fill-rule:nonzero;stroke:none" d="m 0,0 c 13.625,-3.486 27.062,-4.439 39.772,-4.256 76.543,-44.755 181.089,-88.147 315.24,-69.968 98.707,13.529 205.58,81.668 261.688,159.349 30.176,41.862 49.651,87.361 58.479,123.842 4.958,20.533 6.835,38.882 6.946,52.801 0.129,16.264 -1.9,26.433 -1.9,26.433 5.87,-34.32 1.163,-63.053 -3.799,-86.943 -4.549,-21.881 -10.915,-41.975 -18.114,-60.377 C 645.674,108.626 629.066,78.071 608.869,49.925 573.217,0.215 530.375,-36.248 487.877,-61.217 401.655,-111.807 310.754,-119.923 240.902,-112.356 147.335,-102.114 76.302,-68.395 28.45,-37.284 19,-24.919 9.516,-12.491 0,0"/></g><g id="g188" transform="translate(160.9521,419.9438)"><path id="path186" style="fill:#11418b;fill-opacity:1;fill-rule:nonzero;stroke:none" d="m 0,0 c 45.473,-32.164 100.243,-60.952 163.767,-78.819 58.744,-16.5 125.988,-23.818 199.357,-8.962 97.505,19.883 198.691,97.542 249.947,179.653 28.087,45.082 45.382,92.612 52.871,130.414 4.197,21.224 5.52,40.003 5.294,54.184 -0.266,16.467 -2.39,26.658 -2.39,26.658 6.304,-34.455 2.775,-63.518 -1.158,-88.003 -3.449,-21.172 -8.532,-42.045 -15.202,-62.432 C 641.597,119.125 626.841,86.939 608.515,56.781 576.321,3.833 536.591,-36.591 496.283,-65.347 415.706,-122.76 326.69,-138.15 257.823,-134.232 172.471,-129.273 104.086,-101.047 55.385,-72.398 37.025,-48.458 18.563,-24.325 0,0"/></g><g id="g192" transform="translate(198.2231,371.1704)"><path id="path190" style="fill:#5db024;fill-opacity:1;fill-rule:nonzero;stroke:none" d="m 0,0 c 46.683,-29.867 101.35,-54.668 162.336,-67.795 56.638,-12.165 119.878,-14.312 186.077,3.971 95.17,26.433 189.254,112.457 235.473,198.267 25.699,47.806 40.759,96.919 46.88,135.705 7.278,46.23 0.805,81.746 0.805,81.746 6.529,-34.372 3.721,-63.5 0.441,-88.242 -2.888,-21.444 -7.326,-42.649 -13.278,-63.452 -9.719,-34.288 -23.13,-67.42 -39.998,-98.815 C 549.165,46.38 512.213,3.254 474.171,-28.46 399.077,-90.993 313.764,-113.295 247.454,-114.082 164.265,-114.963 97.007,-90.155 49.715,-64.787 33.208,-43.315 16.636,-21.719 0,0"/></g></g></g></g></g></g></g></g></g><g id="g204"><g clip-path="url(#clipPath210)" id="g206"><g id="g212"><g id="g214"/><g id="g258"><g style="opacity:0.30000299" id="g256" clip-path="url(#clipPath218)"><g id="g254"><g id="g224"/><g id="g252"><g style="opacity:0.63999897" id="g250" clip-path="url(#clipPath222)"><g id="g228" transform="translate(936.8877,-352.3945)"><path id="path226" style="fill:#11418b;fill-opacity:1;fill-rule:nonzero;stroke:none" d="m 0,0 c -6.534,58.846 -20.863,125.178 -51.008,197.797 -51.098,122.717 -165.389,244.672 -282.373,295.58 -59.243,25.714 -121.573,36.082 -168.546,34.037 -56.866,-2.507 -97.453,-25.774 -97.453,-25.774 38.484,23.167 75.847,28.777 106.646,31.595 28.082,2.561 54.752,1.695 79.519,-1.043 46.993,-5.206 89.639,-17.5 127.076,-33.046 C -212.97,468.73 -155.062,423.904 -110.65,376.282 -18.517,277.384 23.003,162.493 44.637,68.304 54.772,24.103 61.526,-20.807 64.842,-66.034 44.757,-42.587 22.865,-20.629 0,0"/></g><g id="g232" transform="translate(992.4268,-407.8066)"><path id="path230" style="fill:#5db024;fill-opacity:1;fill-rule:nonzero;stroke:none" d="m 0,0 c -3.213,79.729 -18.394,173.117 -66.452,275.615 -58.284,123.915 -185.028,241.274 -308.352,285.657 -63.864,22.915 -129.445,29.949 -178.72,25.676 -59.555,-5.191 -101.383,-29.898 -101.383,-29.898 41.235,25.42 81.3,32.251 114.446,36.226 30.277,3.624 59.067,3.69 85.885,1.761 50.822,-3.669 97.11,-14.773 137.913,-29.531 79.285,-28.708 142.742,-73.194 191.198,-121.194 C -25.233,344.911 19.635,225.886 41.048,129.968 59.339,47.702 62.561,-23.435 60.146,-81.381 43.176,-51.878 22.286,-24.855 0,0"/></g><g id="g236" transform="translate(1035.708,-462.4375)"><path id="path234" style="fill:#11418b;fill-opacity:1;fill-rule:nonzero;stroke:none" d="m 0,0 c 3.876,100.813 -7.325,223.779 -76.577,356.391 -64.639,123.377 -202.161,234.229 -330.399,271.862 -67.767,19.821 -135.884,23.54 -186.962,17.101 -61.583,-7.792 -104.242,-33.674 -104.242,-33.674 41.14,25.793 81.014,33.828 114.35,38.95 30.475,4.676 59.563,5.897 86.799,5.12 125.816,-3.79 246.482,-50.837 341.675,-133.216 C -48.636,429.735 4.152,312.752 29.377,216.776 62.952,88.508 57.128,-18.02 44.621,-92.122 35.677,-57.732 18.582,-27.118 0,0"/></g><g id="g240" transform="translate(1084.1182,-572.8105)"><path id="path238" style="fill:#5db024;fill-opacity:1;fill-rule:nonzero;stroke:none" d="m 0,0 c -2.974,19.551 -9.123,37.466 -16.342,53.816 15.864,123.661 14.581,282.817 -82.635,446.459 -71.726,120.325 -218.602,221.206 -349.939,251.14 -70.743,16.058 -140.313,16.262 -192.367,7.641 -29.291,-4.862 -54.065,-12.517 -72.136,-20.02 -21.115,-8.77 -33.158,-16.985 -33.158,-16.985 41.183,26.457 80.945,36.15 114.585,42.857 30.81,6.138 60.308,8.938 88.074,9.731 48.679,1.367 97.338,-3.341 144.852,-14.016 83.906,-18.829 154.62,-54.243 210.273,-95.528 C -75.968,581.295 -15.532,468.104 13.048,373.535 51.194,246.805 46.584,136.34 32.616,57.311 21.807,38.284 10.935,19.181 0,0"/></g><g id="g244" transform="translate(1097.1982,-549.8818)"><path id="path242" style="fill:#11418b;fill-opacity:1;fill-rule:nonzero;stroke:none" d="m 0,0 c 16.638,76.53 23.801,163.235 12.026,255.271 -10.92,85.099 -38.39,176.154 -97.916,262.953 -79.289,115.274 -235.359,203.568 -369.761,224.789 -73.762,11.583 -144.763,7.849 -197.789,-3.229 -29.769,-6.229 -54.796,-14.836 -73.021,-22.921 -21.16,-9.392 -33.181,-17.742 -33.181,-17.742 41.121,27.093 80.663,38.494 114.508,46.858 31.079,7.673 60.917,12.146 89.134,14.629 49.415,4.352 99.169,2.939 148.258,-4.208 86.195,-12.578 160.325,-41.788 219.676,-78.157 C -69.514,605.5 -0.701,498.743 32.059,407.457 72.528,294.26 73.572,190.241 63.253,111.467 42.362,74.548 21.278,37.393 0,0"/></g><g id="g248" transform="translate(1139.834,-474.8418)"><path id="path246" style="fill:#5db024;fill-opacity:1;fill-rule:nonzero;stroke:none" d="m 0,0 c 13.002,76.832 15.063,161.216 -1.453,247.363 -15.371,79.99 -47.332,163.021 -107.356,238.656 -86.481,108.653 -249.473,183.157 -385.895,195.828 -75.974,6.995 -147.796,-0.5 -201.345,-13.889 -63.817,-15.984 -106.217,-43.878 -106.217,-43.878 40.889,27.339 80.122,39.708 113.937,49.059 31.104,8.594 61.019,14.106 89.395,17.679 49.706,6.262 99.946,7.109 149.834,2.527 87.417,-8.05 163.517,-32.178 225.451,-63.991 C -101.483,566.521 -25.762,468.356 11.683,382.963 58.52,275.777 63.367,175.093 56.521,99.943 37.804,66.78 18.964,33.466 0,0"/></g></g></g></g></g></g></g></g></g></g></g></g></svg>