<?xml version="1.0" encoding="UTF-8" standalone="no"?>
<svg
   version="1.2"
   viewBox="55 200 575 280"
   id="svg14"
   sodipodi:docname="test.svg"
   inkscape:version="1.3.2 (091e20e, 2023-11-25, custom)"
   xmlns:inkscape="http://www.inkscape.org/namespaces/inkscape"
   xmlns:sodipodi="http://sodipodi.sourceforge.net/DTD/sodipodi-0.dtd"
   xmlns="http://www.w3.org/2000/svg"
   xmlns:svg="http://www.w3.org/2000/svg">
  <sodipodi:namedview
     id="namedview14"
     pagecolor="#ffffff"
     bordercolor="#000000"
     borderopacity="0.25"
     inkscape:showpageshadow="2"
     inkscape:pageopacity="0.0"
     inkscape:pagecheckerboard="0"
     inkscape:deskcolor="#d1d1d1"
     inkscape:zoom="1.402073"
     inkscape:cx="314.17765"
     inkscape:cy="182.58678"
     inkscape:window-width="1600"
     inkscape:window-height="822"
     inkscape:window-x="-8"
     inkscape:window-y="-8"
     inkscape:window-maximized="1"
     inkscape:current-layer="svg14" />
  <title
     id="title1">One8_logo - Copy-svg</title>
  <defs
     id="defs14">
    <clipPath
       clipPathUnits="userSpaceOnUse"
       id="cp1">
      <path
         d="m0 0h682.67v682.67h-682.67z"
         id="path1" />
    </clipPath>
    <clipPath
       clipPathUnits="userSpaceOnUse"
       id="cp2">
      <path
         d="m57.85 304.59v156.28c2.35 10.51 11.73 18.37 22.95 18.37l337.38-0.01-0.23-174.64z"
         id="path2" />
    </clipPath>
    <clipPath
       clipPathUnits="userSpaceOnUse"
       id="cp3">
      <path
         d="m-126.36 353.55h638.58v588.65h-638.58z"
         id="path3" />
    </clipPath>
    <clipPath
       clipPathUnits="userSpaceOnUse"
       id="cp4">
      <path
         d="m-126.36 353.55h638.58v588.65h-638.58z"
         id="path4" />
    </clipPath>
    <clipPath
       clipPathUnits="userSpaceOnUse"
       id="cp5">
      <path
         d="m80.8 203.44c-12.99 0-23.52 10.53-23.52 23.52v98.7h222.95v-122.23z"
         id="path5" />
    </clipPath>
    <clipPath
       clipPathUnits="userSpaceOnUse"
       id="cp6">
      <path
         d="m-331.91-71.41h610.15v415.61h-610.15z"
         id="path6" />
    </clipPath>
    <clipPath
       clipPathUnits="userSpaceOnUse"
       id="cp7">
      <path
         d="m-331.91-71.41h610.15v415.61h-610.15z"
         id="path7" />
    </clipPath>
    <clipPath
       clipPathUnits="userSpaceOnUse"
       id="cp8">
      <path
         d="m0 0h682.67v682.67h-682.67z"
         id="path8" />
    </clipPath>
    <clipPath
       clipPathUnits="userSpaceOnUse"
       id="cp9">
      <path
         d="m781.31 0h307.92v316.73h-307.92z"
         id="path9" />
    </clipPath>
    <clipPath
       clipPathUnits="userSpaceOnUse"
       id="cp10">
      <path
         d="m199.44-281.47h912.22v621.38h-912.22z"
         id="path10" />
    </clipPath>
    <clipPath
       clipPathUnits="userSpaceOnUse"
       id="cp11">
      <path
         d="m199.44-281.47h912.22v621.38h-912.22z"
         id="path11" />
    </clipPath>
    <clipPath
       clipPathUnits="userSpaceOnUse"
       id="cp12">
      <path
         d="m781.31 366.66h682.66v316.01h-682.66z"
         id="path12" />
    </clipPath>
    <clipPath
       clipPathUnits="userSpaceOnUse"
       id="cp13">
      <path
         d="m450.01 387.46h1148.47v1058.95h-1148.47z"
         id="path13" />
    </clipPath>
    <clipPath
       clipPathUnits="userSpaceOnUse"
       id="cp14">
      <path
         d="m450.01 387.46h1148.47v1058.95h-1148.47z"
         id="path14" />
    </clipPath>
  </defs>
  <style
     id="style14">
		.s0 { fill: #11418b } 
		.s1 { fill: #5db024 } 
		.s2 { fill: #ffffff } 
	</style>
  <g
     id="g10"
     transform="translate(2,-1.4264593)">
    <g
       id="g12">
      <g
         id="Clip-Path: g14"
         clip-path="url(#cp1)">
        <g
           id="g14">
          <g
             id="g20">
            <path
               id="path22"
               class="s0"
               d="m 442.5,420.7 v -27 q 0,-26.5 17.8,-46.3 7.6,-8.6 17.7,-14.2 -17.6,-9 -27.3,-30 -4.9,-10.7 -4.9,-27.2 v -15.8 q 0,-28 16.7,-46.5 c 3.6,-4 7.6,-7.4 11.8,-10.3 H 80.8 c -13,0 -23.5,10.6 -23.5,23.6 v 228.7 c 0,13 10.5,23.5 23.5,23.5 h 393.9 c -4.3,-2.7 -8.3,-6 -12.1,-9.8 q -20.1,-20.3 -20.1,-48.7 z" />
          </g>
          <g
             id="g24">
            <path
               id="path26"
               class="s1"
               d="m 523.3,234.7 q -4.3,-1.9 -10,-1.9 -11.3,0 -18.4,6.3 -5.9,5.1 -8.3,13.1 -2.4,7.9 -1.9,19.9 0.6,18.9 6,27.2 6.8,11.1 22.6,11.1 15.7,0 22.8,-11.8 6,-10 5.7,-26.5 -0.3,-29.8 -18.5,-37.4 z" />
          </g>
          <g
             id="g28">
            <path
               id="path30"
               class="s1"
               d="m 528.8,364.8 q -5.5,-4.1 -15.5,-4.1 -17.3,0 -23.5,14.7 -3.8,9.1 -3.8,24.2 V 414 q 0,14.3 8.9,23 7.3,7.5 18.4,7.9 17.7,-0.9 24.7,-17.6 2.6,-5.5 2.6,-13.3 v -14.4 q 0,-25.9 -11.8,-34.8 z" />
          </g>
          <g
             id="g32">
            <path
               id="path34"
               class="s1"
               d="m 601.9,203.4 h -49.8 c 4.3,2.9 8.3,6.3 11.9,10.3 q 16.7,18.6 16.7,46.5 V 276 q 0,27.1 -16.2,44.9 -7.1,7.7 -15.9,12.3 19.4,10.8 30,33 5.6,11.3 5.6,27.5 v 27 q 0,28.8 -20.3,48.9 c -3.8,3.8 -7.9,6.9 -12.1,9.6 h 50.1 c 13,0 23.5,-10.5 23.5,-23.5 V 226.9 c 0,-12.9 -10.5,-23.5 -23.5,-23.5 z" />
          </g>
        </g>
      </g>
    </g>
    <g
       id="g36">
      <g
         id="Clip-Path: g38"
         clip-path="url(#cp2)">
        <g
           id="g38">
          <g
             id="g44">
            <g
               id="g46" />
            <g
               id="g82">
              <g
                 id="Clip-Path: g80"
                 clip-path="url(#cp3)">
                <g
                   id="g80"
                   style="opacity:0.4">
                  <g
                     id="g78">
                    <g
                       id="g56" />
                    <g
                       id="g76">
                      <g
                         id="Clip-Path: g74"
                         clip-path="url(#cp4)">
                        <g
                           id="g74"
                           style="opacity:0.6">
                          <g
                             id="g60" />
                          <g
                             id="g64">
                            <path
                               id="path62"
                               class="s0"
                               d="M 391.3,860.4 C 394.1,785.7 385.8,694.5 334.5,596.3 286.6,504.8 184.6,422.6 89.5,394.8 39.3,380.1 -11.2,377.3 -49.1,382.1 c -45.6,5.8 -77.2,24.9 -77.2,24.9 30.5,-19.1 60,-25 84.7,-28.8 22.6,-3.5 44.2,-4.4 64.4,-3.8 93.3,2.8 182.7,37.7 253.3,98.7 79.1,68.8 118.2,155.5 136.9,226.6 24.9,95.1 20.6,174.1 11.3,229 -6.6,-25.5 -19.3,-48.2 -33,-68.3 z" />
                          </g>
                          <g
                             id="g68" />
                          <g
                             id="g72" />
                        </g>
                      </g>
                    </g>
                  </g>
                </g>
              </g>
            </g>
          </g>
        </g>
      </g>
    </g>
    <g
       id="g84">
      <g
         id="Clip-Path: g86"
         clip-path="url(#cp5)">
        <g
           id="g86">
          <g
             id="g92">
            <g
               id="g94" />
            <g
               id="g126">
              <g
                 id="Clip-Path: g124"
                 clip-path="url(#cp6)">
                <g
                   id="g124"
                   style="opacity:0.4">
                  <g
                     id="g122">
                    <g
                       id="g104" />
                    <g
                       id="g120">
                      <g
                         id="Clip-Path: g118"
                         clip-path="url(#cp7)">
                        <g
                           id="g118"
                           style="opacity:0.6">
                          <g
                             id="g108" />
                          <g
                             id="g112">
                            <path
                               id="path110"
                               class="s0"
                               d="m -321.8,198.9 c 40.6,28.7 89.4,54.4 146.1,70.3 52.4,14.7 112.3,21.3 177.8,8 C 89,259.5 179.3,190.2 225,117 250,76.8 265.5,34.4 272.1,0.7 c 3.8,-18.9 5,-35.7 4.8,-48.3 -0.3,-14.7 -2.2,-23.8 -2.2,-23.8 5.6,30.7 2.5,56.6 -1,78.5 -3.1,18.9 -7.6,37.5 -13.6,55.7 -9.7,29.9 -22.8,58.6 -39.2,85.5 -28.7,47.2 -64.1,83.3 -100.1,108.9 -71.8,51.2 -151.2,64.9 -212.6,61.4 -76.2,-4.4 -137.1,-29.5 -180.6,-55.1 q -24.5,-32 -49.4,-64.6 z" />
                          </g>
                          <g
                             id="g116" />
                        </g>
                      </g>
                    </g>
                  </g>
                </g>
              </g>
            </g>
          </g>
        </g>
      </g>
    </g>
    <g
       id="g128">
      <g
         id="Clip-Path: g130"
         clip-path="url(#cp8)">
        <g
           id="g130">
          <g
             id="g136">
            <path
               id="path138"
               fill-rule="evenodd"
               class="s2"
               d="m 140.8,250.3 q 17.7,0 30.1,12.5 12.4,12.4 12.4,30.1 v 96.9 q 0,17.7 -12.4,30.1 -12.5,12.5 -30.1,12.5 -17.7,0 -30,-12.5 -12.3,-12.5 -12.3,-30.1 v -96.9 q 0,-17.8 12.5,-30.2 12.4,-12.4 29.8,-12.4 z m 14.6,42.1 q 0,-6.5 -4.4,-10.9 -4.5,-4.4 -10.9,-4.4 -6.3,0 -10.9,4.4 -4.5,4.4 -4.5,10.9 v 97.2 q 0,6.3 4.5,10.8 4.6,4.5 10.9,4.5 6.4,0 10.9,-4.5 4.4,-4.5 4.4,-10.8 z" />
          </g>
          <g
             id="g140">
            <path
               id="path142"
               class="s2"
               d="m 235.1,250.3 36.3,122.3 V 250.3 h 27.5 V 432.4 H 269.5 L 231.7,315.8 V 432.4 H 204.3 V 250.3 Z" />
          </g>
          <g
             id="g144">
            <path
               id="path146"
               class="s2"
               d="M 323.1,432.4 V 250.3 h 78.2 v 27.4 h -50.7 v 50 h 37 v 27.4 h -37 v 49.8 h 50.7 v 27.5 z" />
          </g>
          <g
             id="g148">
            <g
               id="Clip-Path: g150"
               clip-path="url(#cp9)">
              <g
                 id="g150">
                <g
                   id="g156">
                  <g
                     id="g158" />
                  <g
                     id="g202">
                    <g
                       id="Clip-Path: g200"
                       clip-path="url(#cp10)">
                      <g
                         id="g200"
                         style="opacity:0.3">
                        <g
                           id="g198">
                          <g
                             id="g168" />
                          <g
                             id="g196">
                            <g
                               id="Clip-Path: g194"
                               clip-path="url(#cp11)">
                              <g
                                 id="g194"
                                 style="opacity:0.6">
                                <g
                                   id="g172">
                                <path
                                   id="path170"
                                   class="s0"
                                   d="m 446.4,56 c 53.8,16.1 117,28.1 191.6,28.7 126,0.9 274.8,-53.7 362.6,-137 44.4,-42.2 76.6,-92.8 92.2,-134.5 18.9,-50.6 13.6,-94.7 13.6,-94.7 6,42.2 -3,76.9 -11.9,104.8 -8.2,25.5 -18.8,48.5 -30.4,69.1 -22,39.1 -48.5,71.8 -76,98.7 C 934.5,43.7 873.9,77.7 815.9,98.8 695.4,142.6 579.7,136.3 489.5,120.2 447.1,112.7 405.4,102 364.7,88.1 392.6,79.3 419.9,68.3 446.4,56 Z" />
                                </g>
                                <g
                                   id="g176">
                                <path
                                   id="path174"
                                   class="s1"
                                   d="m 377.4,83.9 c 70.8,26.8 158,48.1 265.2,44.1 129.8,-4.9 279.2,-72.1 363.7,-163.3 43.7,-47.3 74.1,-102 88.6,-146.6 17.6,-53.9 11.5,-99.6 11.5,-99.6 6.9,45.5 -2,83 -10.8,113.4 -8,27.8 -18.7,52.9 -30.3,75.6 -20.5,39.9 -46.3,76.7 -76.9,109.5 -54.4,58.6 -116.8,97.5 -176.6,122 -123.9,50.7 -244.5,45.8 -336.1,28.9 -78.6,-14.5 -141.9,-38 -191.6,-61.6 32.1,-3.9 63.4,-12.1 93.3,-22.4 z" />
                                </g>
                                <g
                                   id="g180">
                                <path
                                   id="path178"
                                   class="s0"
                                   d="m 313.7,101.5 c 86.6,40.7 198.1,76.5 339.5,65.2 131.6,-10.8 279.4,-89.7 359.7,-187.8 42.5,-51.8 71,-109.9 84.3,-156.9 16,-56.6 9.2,-103.5 9.2,-103.5 7.3,45.5 -0.5,83.3 -8.4,114.3 -7.2,28.4 -16.9,54.2 -27.7,77.7 C 1020.4,18.9 934.6,106.9 827.4,159.4 706.8,218.2 585.2,221 492,207.4 367.6,189.2 276.8,144.7 216.8,106.3 c 33.3,4.9 66.4,1.3 96.9,-4.8 z" />
                                </g>
                                <g
                                   id="g184">
                                <path
                                   id="path182"
                                   class="s1"
                                   d="m 199.4,102.8 c 18.2,4.7 36.1,5.9 53.1,5.7 102,59.7 241.4,117.5 420.3,93.3 131.6,-18 274.1,-108.9 348.9,-212.5 40.2,-55.8 66.2,-116.5 78,-165.1 6.6,-27.4 9.1,-51.8 9.2,-70.4 0.2,-21.7 -2.5,-35.2 -2.5,-35.2 7.8,45.7 1.6,84 -5.1,115.9 -6,29.2 -14.5,55.9 -24.1,80.5 -16.9,43 -39,83.7 -65.9,121.3 C 963.7,102.5 906.6,151.2 849.9,184.4 735,251.9 613.8,262.7 520.6,252.6 395.9,239 301.2,194 237.4,152.5 q -18.9,-24.7 -38,-49.7 z" />
                                </g>
                                <g
                                   id="g188">
                                <path
                                   id="path186"
                                   class="s0"
                                   d="m 214.6,122.7 c 60.6,42.9 133.7,81.3 218.4,105.1 78.3,22 167.9,31.8 265.8,12 130,-26.5 264.9,-130.1 333.2,-239.6 37.5,-60.1 60.5,-123.4 70.5,-173.8 5.6,-28.3 7.4,-53.4 7.1,-72.3 -0.4,-21.9 -3.2,-35.5 -3.2,-35.5 8.4,45.9 3.7,84.7 -1.5,117.3 -4.6,28.2 -11.4,56.1 -20.3,83.3 -14.5,44.7 -34.2,87.6 -58.6,127.8 -43,70.6 -95.9,124.5 -149.7,162.9 -107.4,76.5 -226.1,97 -317.9,91.8 -113.8,-6.6 -205,-44.2 -270,-82.4 q -36.7,-47.9 -73.8,-96.6 z" />
                                </g>
                                <g
                                   id="g192">
                                <path
                                   id="path190"
                                   class="s1"
                                   d="m 264.3,187.8 c 62.2,39.8 135.1,72.9 216.4,90.4 75.6,16.2 159.9,19 248.1,-5.3 126.9,-35.3 252.4,-150 314,-264.4 34.3,-63.7 54.4,-129.2 62.5,-180.9 9.7,-61.7 1.1,-109 1.1,-109 8.7,45.8 5,84.6 0.6,117.6 -3.9,28.6 -9.8,56.9 -17.7,84.6 -13,45.8 -30.9,89.9 -53.4,131.8 C 996.5,125.9 947.2,183.4 896.5,225.7 796.4,309.1 682.6,338.8 594.2,339.9 483.3,341.1 393.6,308 330.6,274.2 q -33,-43 -66.3,-86.4 z" />
                                </g>
                              </g>
                            </g>
                          </g>
                        </g>
                      </g>
                    </g>
                  </g>
                </g>
              </g>
            </g>
          </g>
          <g
             id="g204">
            <g
               id="Clip-Path: g206"
               clip-path="url(#cp12)">
              <g
                 id="g206">
                <g
                   id="g212">
                  <g
                     id="g214" />
                  <g
                     id="g258">
                    <g
                       id="Clip-Path: g256"
                       clip-path="url(#cp13)">
                      <g
                         id="g256"
                         style="opacity:0.3">
                        <g
                           id="g254">
                          <g
                             id="g224" />
                          <g
                             id="g252">
                            <g
                               id="Clip-Path: g250"
                               clip-path="url(#cp14)">
                              <g
                                 id="g250"
                                 style="opacity:0.6">
                                <g
                                   id="g228">
                                <path
                                   id="path226"
                                   class="s0"
                                   d="m 1249.2,1152.5 c -8.7,-78.4 -27.8,-166.9 -68,-263.7 C 1113,725.2 960.7,562.6 804.7,494.7 725.7,460.4 642.6,446.6 579.9,449.3 504.1,452.7 450,483.7 450,483.7 c 51.3,-30.9 101.1,-38.4 142.2,-42.2 37.4,-3.4 73,-2.2 106,1.4 62.7,7 119.5,23.4 169.5,44.1 97.5,40.6 174.7,100.3 234,163.8 122.8,131.9 178.2,285.1 207,410.7 13.5,58.9 22.5,118.8 26.9,179.1 -26.7,-31.3 -55.9,-60.6 -86.4,-88.1 z" />
                                </g>
                                <g
                                   id="g232">
                                <path
                                   id="path230"
                                   class="s1"
                                   d="M 1323.2,1226.4 C 1319,1120.1 1298.7,995.6 1234.6,858.9 1156.9,693.7 987.9,537.2 823.5,478 738.3,447.5 650.9,438.1 585.2,443.8 505.8,450.7 450,483.7 450,483.7 c 55,-33.9 108.4,-43 152.6,-48.3 40.4,-4.9 78.8,-4.9 114.5,-2.4 67.8,4.9 129.5,19.7 183.9,39.4 105.7,38.3 190.3,97.6 254.9,161.6 133.7,132.5 193.5,291.2 222.1,419.1 24.4,109.7 28.7,204.6 25.4,281.8 -22.6,-39.3 -50.4,-75.4 -80.2,-108.5 z" />
                                </g>
                                <g
                                   id="g236">
                                <path
                                   id="path234"
                                   class="s0"
                                   d="m 1380.9,1299.2 c 5.2,-134.4 -9.7,-298.3 -102.1,-475.1 C 1192.7,659.6 1009.3,511.8 838.3,461.6 748,435.2 657.1,430.2 589,438.8 c -82.1,10.4 -139,44.9 -139,44.9 54.9,-34.4 108.1,-45.1 152.5,-52 40.6,-6.2 79.4,-7.8 115.7,-6.8 167.8,5.1 328.7,67.8 455.6,177.6 142.3,123.8 212.7,279.7 246.3,407.7 44.8,171 37,313.1 20.3,411.9 -11.9,-45.9 -34.7,-86.7 -59.5,-122.9 z" />
                                </g>
                                <g
                                   id="g240">
                                <path
                                   id="path238"
                                   class="s1"
                                   d="m 1445.5,1446.4 c -4,-26.1 -12.2,-49.9 -21.8,-71.7 21.2,-164.9 19.4,-377.1 -110.2,-595.3 -95.6,-160.5 -291.4,-295 -466.6,-334.9 -94.3,-21.4 -187,-21.7 -256.5,-10.2 -39,6.5 -72,16.7 -96.1,26.7 -28.2,11.7 -44.2,22.7 -44.2,22.7 54.9,-35.3 107.9,-48.2 152.7,-57.2 41.1,-8.1 80.4,-11.9 117.5,-12.9 64.9,-1.9 129.8,4.4 193.1,18.7 111.9,25.1 206.2,72.3 280.4,127.3 150.4,111.8 231,262.7 269.1,388.8 50.8,168.9 44.7,316.2 26.1,421.6 q -21.6,38.1 -43.5,76.4 z" />
                                </g>
                                <g
                                   id="g244">
                                <path
                                   id="path242"
                                   class="s0"
                                   d="m 1462.9,1415.8 c 22.2,-102 31.8,-217.6 16.1,-340.3 C 1464.4,962 1427.8,840.6 1348.4,724.9 1242.7,571.2 1034.6,453.5 855.4,425.2 c -98.4,-15.5 -193,-10.5 -263.7,4.3 -39.7,8.3 -73.1,19.7 -97.4,30.5 -28.2,12.5 -44.2,23.7 -44.2,23.7 54.8,-36.1 107.5,-51.3 152.7,-62.5 41.4,-10.2 81.2,-16.2 118.8,-19.5 65.9,-5.8 132.2,-3.9 197.7,5.6 114.9,16.8 213.7,55.7 292.9,104.2 158,97 249.8,239.4 293.5,361.1 53.9,150.9 55.3,289.6 41.6,394.6 q -41.8,73.9 -84.4,148.6 z" />
                                </g>
                                <g
                                   id="g248">
                                <path
                                   id="path246"
                                   class="s1"
                                   d="m 1519.8,1315.8 c 17.3,-102.5 20.1,-215 -2,-329.8 C 1497.3,879.3 1454.7,768.6 1374.7,667.8 1259.4,522.9 1042.1,423.6 860.2,406.7 c -101.3,-9.4 -197.1,0.6 -268.5,18.5 -85.1,21.3 -141.6,58.5 -141.6,58.5 54.5,-36.5 106.8,-53 151.9,-65.4 41.5,-11.5 81.4,-18.8 119.2,-23.6 66.3,-8.4 133.3,-9.5 199.8,-3.4 116.5,10.8 218,42.9 300.6,85.4 162.9,83.7 263.8,214.6 313.8,328.5 62.4,142.9 68.9,277.1 59.7,377.3 q -37.4,66.4 -75.3,133.3 z" />
                                </g>
                              </g>
                            </g>
                          </g>
                        </g>
                      </g>
                    </g>
                  </g>
                </g>
              </g>
            </g>
          </g>
        </g>
      </g>
    </g>
  </g>
</svg>
